<mxfile host="app.diagrams.net" modified="2023-12-06T02:03:24.245Z" agent="Mozilla/5.0 (Windows NT 10.0; Win64; x64) AppleWebKit/537.36 (KHTML, like Gecko) Chrome/119.0.0.0 Safari/537.36 Edg/119.0.0.0" etag="aHjkzfIGKrI7iEih9uc7" version="22.1.5" type="github">
  <diagram name="第 1 页" id="-HQCv7oFZEVl9yMhPrjQ">
    <mxGraphModel dx="2031" dy="919" grid="1" gridSize="10" guides="1" tooltips="1" connect="1" arrows="1" fold="1" page="0" pageScale="1" pageWidth="827" pageHeight="1169" math="1" shadow="0">
      <root>
        <mxCell id="0" />
        <mxCell id="1" parent="0" />
        <mxCell id="WciaQcS6WvNpjQy-xUMx-198" value="" style="rounded=1;whiteSpace=wrap;html=1;dashed=1;dashPattern=8 8;" vertex="1" parent="1">
          <mxGeometry x="-46" y="122" width="616" height="878" as="geometry" />
        </mxCell>
        <mxCell id="WciaQcS6WvNpjQy-xUMx-81" value="$$0$$" style="rounded=0;whiteSpace=wrap;html=1;fontSize=12;fillColor=#f5f5f5;strokeColor=default;fontColor=#333333;" vertex="1" parent="1">
          <mxGeometry x="20" y="170" width="90" height="40" as="geometry" />
        </mxCell>
        <mxCell id="WciaQcS6WvNpjQy-xUMx-82" value="$$2L$$" style="rounded=0;whiteSpace=wrap;html=1;fontSize=12;fillColor=#f5f5f5;strokeColor=default;fontColor=#333333;" vertex="1" parent="1">
          <mxGeometry x="20" y="210" width="90" height="40" as="geometry" />
        </mxCell>
        <mxCell id="WciaQcS6WvNpjQy-xUMx-83" value="$$\vdots$$" style="rounded=0;whiteSpace=wrap;html=1;fontSize=12;fillColor=#f5f5f5;strokeColor=default;fontColor=#333333;" vertex="1" parent="1">
          <mxGeometry x="20" y="250" width="90" height="40" as="geometry" />
        </mxCell>
        <mxCell id="WciaQcS6WvNpjQy-xUMx-84" value="$$\frac{N}{4}-2L$$" style="rounded=0;whiteSpace=wrap;html=1;fontSize=12;fillColor=#f5f5f5;strokeColor=default;fontColor=#333333;" vertex="1" parent="1">
          <mxGeometry x="20" y="290" width="90" height="40" as="geometry" />
        </mxCell>
        <mxCell id="WciaQcS6WvNpjQy-xUMx-85" value="$$\frac{N}{2}+2L-1$$" style="rounded=0;whiteSpace=wrap;html=1;fontSize=12;fillColor=#fff2cc;strokeColor=default;" vertex="1" parent="1">
          <mxGeometry x="20" y="330" width="90" height="40" as="geometry" />
        </mxCell>
        <mxCell id="WciaQcS6WvNpjQy-xUMx-86" value="$$\vdots$$" style="rounded=0;whiteSpace=wrap;html=1;fontSize=12;fillColor=#fff2cc;strokeColor=default;" vertex="1" parent="1">
          <mxGeometry x="20" y="410" width="90" height="40" as="geometry" />
        </mxCell>
        <mxCell id="WciaQcS6WvNpjQy-xUMx-87" value="$$\frac{N}{2}+4L-1$$" style="rounded=0;whiteSpace=wrap;html=1;fontSize=12;fillColor=#fff2cc;strokeColor=default;" vertex="1" parent="1">
          <mxGeometry x="20" y="370" width="90" height="40" as="geometry" />
        </mxCell>
        <mxCell id="WciaQcS6WvNpjQy-xUMx-88" value="$$\frac{3N}{4}-1$$" style="rounded=0;whiteSpace=wrap;html=1;fontSize=12;fillColor=#fff2cc;strokeColor=default;" vertex="1" parent="1">
          <mxGeometry x="20" y="450" width="90" height="40" as="geometry" />
        </mxCell>
        <mxCell id="WciaQcS6WvNpjQy-xUMx-89" value="$$\frac{N}{4}$$" style="rounded=0;whiteSpace=wrap;html=1;fontSize=12;fillColor=#ffe6cc;strokeColor=default;" vertex="1" parent="1">
          <mxGeometry x="20" y="490" width="90" height="40" as="geometry" />
        </mxCell>
        <mxCell id="WciaQcS6WvNpjQy-xUMx-90" value="$$\frac{N}{4}+2L$$" style="rounded=0;whiteSpace=wrap;html=1;fontSize=12;fillColor=#ffe6cc;strokeColor=default;" vertex="1" parent="1">
          <mxGeometry x="20" y="530" width="90" height="40" as="geometry" />
        </mxCell>
        <mxCell id="WciaQcS6WvNpjQy-xUMx-91" value="$$\vdots$$" style="rounded=0;whiteSpace=wrap;html=1;fontSize=12;fillColor=#ffe6cc;strokeColor=default;" vertex="1" parent="1">
          <mxGeometry x="20" y="570" width="90" height="40" as="geometry" />
        </mxCell>
        <mxCell id="WciaQcS6WvNpjQy-xUMx-92" value="$$\frac{N}{2}-2L$$" style="rounded=0;whiteSpace=wrap;html=1;fontSize=12;fillColor=#ffe6cc;strokeColor=default;" vertex="1" parent="1">
          <mxGeometry x="20" y="610" width="90" height="40" as="geometry" />
        </mxCell>
        <mxCell id="WciaQcS6WvNpjQy-xUMx-93" value="$$\frac{3N}{4}+2L-1$$" style="rounded=0;whiteSpace=wrap;html=1;fontSize=12;fillColor=#dae8fc;strokeColor=default;" vertex="1" parent="1">
          <mxGeometry x="20" y="650" width="90" height="40" as="geometry" />
        </mxCell>
        <mxCell id="WciaQcS6WvNpjQy-xUMx-94" value="$$\frac{3N}{4}+4L-1$$" style="rounded=0;whiteSpace=wrap;html=1;fontSize=12;fillColor=#dae8fc;strokeColor=default;" vertex="1" parent="1">
          <mxGeometry x="20" y="690" width="90" height="40" as="geometry" />
        </mxCell>
        <mxCell id="WciaQcS6WvNpjQy-xUMx-95" value="$$\vdots$$" style="rounded=0;whiteSpace=wrap;html=1;fontSize=12;fillColor=#dae8fc;strokeColor=default;" vertex="1" parent="1">
          <mxGeometry x="20" y="730" width="90" height="40" as="geometry" />
        </mxCell>
        <mxCell id="WciaQcS6WvNpjQy-xUMx-96" value="$$N-1$$" style="rounded=0;whiteSpace=wrap;html=1;fontSize=12;fillColor=#dae8fc;strokeColor=default;" vertex="1" parent="1">
          <mxGeometry x="20" y="770" width="90" height="40" as="geometry" />
        </mxCell>
        <mxCell id="WciaQcS6WvNpjQy-xUMx-98" value="" style="rounded=0;whiteSpace=wrap;html=1;fontSize=12;" vertex="1" parent="1">
          <mxGeometry x="20" y="810" width="90" height="40" as="geometry" />
        </mxCell>
        <mxCell id="WciaQcS6WvNpjQy-xUMx-99" value="" style="rounded=0;whiteSpace=wrap;html=1;fontSize=12;" vertex="1" parent="1">
          <mxGeometry x="20" y="850" width="90" height="40" as="geometry" />
        </mxCell>
        <mxCell id="WciaQcS6WvNpjQy-xUMx-100" value="" style="rounded=0;whiteSpace=wrap;html=1;fontSize=12;" vertex="1" parent="1">
          <mxGeometry x="20" y="890" width="90" height="40" as="geometry" />
        </mxCell>
        <mxCell id="WciaQcS6WvNpjQy-xUMx-101" value="$$\vdots$$" style="rounded=0;whiteSpace=wrap;html=1;fontSize=12;" vertex="1" parent="1">
          <mxGeometry x="20" y="930" width="90" height="40" as="geometry" />
        </mxCell>
        <mxCell id="WciaQcS6WvNpjQy-xUMx-102" value="$$1$$" style="rounded=0;whiteSpace=wrap;html=1;fontSize=12;fillColor=#f5f5f5;strokeColor=default;fontColor=#333333;" vertex="1" parent="1">
          <mxGeometry x="130" y="170" width="90" height="40" as="geometry" />
        </mxCell>
        <mxCell id="WciaQcS6WvNpjQy-xUMx-103" value="$$2L+1$$" style="rounded=0;whiteSpace=wrap;html=1;fontSize=12;fillColor=#f5f5f5;strokeColor=default;fontColor=#333333;" vertex="1" parent="1">
          <mxGeometry x="130" y="210" width="90" height="40" as="geometry" />
        </mxCell>
        <mxCell id="WciaQcS6WvNpjQy-xUMx-104" value="$$\vdots$$" style="rounded=0;whiteSpace=wrap;html=1;fontSize=12;fillColor=#f5f5f5;strokeColor=default;fontColor=#333333;" vertex="1" parent="1">
          <mxGeometry x="130" y="250" width="90" height="40" as="geometry" />
        </mxCell>
        <mxCell id="WciaQcS6WvNpjQy-xUMx-105" value="$$\frac{N}{4}-2L+1$$" style="rounded=0;whiteSpace=wrap;html=1;fontSize=12;fillColor=#f5f5f5;strokeColor=default;fontColor=#333333;" vertex="1" parent="1">
          <mxGeometry x="130" y="290" width="90" height="40" as="geometry" />
        </mxCell>
        <mxCell id="WciaQcS6WvNpjQy-xUMx-106" value="$$\frac{N}{2}+2L-2$$" style="rounded=0;whiteSpace=wrap;html=1;fontSize=12;fillColor=#fff2cc;strokeColor=default;" vertex="1" parent="1">
          <mxGeometry x="130" y="330" width="90" height="40" as="geometry" />
        </mxCell>
        <mxCell id="WciaQcS6WvNpjQy-xUMx-107" value="$$\vdots$$" style="rounded=0;whiteSpace=wrap;html=1;fontSize=12;fillColor=#fff2cc;strokeColor=default;" vertex="1" parent="1">
          <mxGeometry x="130" y="410" width="90" height="40" as="geometry" />
        </mxCell>
        <mxCell id="WciaQcS6WvNpjQy-xUMx-108" value="$$\frac{N}{2}+4L-2$$" style="rounded=0;whiteSpace=wrap;html=1;fontSize=12;fillColor=#fff2cc;strokeColor=default;" vertex="1" parent="1">
          <mxGeometry x="130" y="370" width="90" height="40" as="geometry" />
        </mxCell>
        <mxCell id="WciaQcS6WvNpjQy-xUMx-109" value="$$\frac{3N}{4}-2$$" style="rounded=0;whiteSpace=wrap;html=1;fontSize=12;fillColor=#fff2cc;strokeColor=default;" vertex="1" parent="1">
          <mxGeometry x="130" y="450" width="90" height="40" as="geometry" />
        </mxCell>
        <mxCell id="WciaQcS6WvNpjQy-xUMx-110" value="$$\frac{N}{4}+1$$" style="rounded=0;whiteSpace=wrap;html=1;fontSize=12;fillColor=#ffe6cc;strokeColor=default;" vertex="1" parent="1">
          <mxGeometry x="130" y="490" width="90" height="40" as="geometry" />
        </mxCell>
        <mxCell id="WciaQcS6WvNpjQy-xUMx-111" value="$$\frac{N}{4}+2L+1$$" style="rounded=0;whiteSpace=wrap;html=1;fontSize=12;fillColor=#ffe6cc;strokeColor=default;" vertex="1" parent="1">
          <mxGeometry x="130" y="530" width="90" height="40" as="geometry" />
        </mxCell>
        <mxCell id="WciaQcS6WvNpjQy-xUMx-112" value="$$\vdots$$" style="rounded=0;whiteSpace=wrap;html=1;fontSize=12;fillColor=#ffe6cc;strokeColor=default;" vertex="1" parent="1">
          <mxGeometry x="130" y="570" width="90" height="40" as="geometry" />
        </mxCell>
        <mxCell id="WciaQcS6WvNpjQy-xUMx-113" value="$$\frac{N}{2}-2L+1$$" style="rounded=0;whiteSpace=wrap;html=1;fontSize=12;fillColor=#ffe6cc;strokeColor=default;" vertex="1" parent="1">
          <mxGeometry x="130" y="610" width="90" height="40" as="geometry" />
        </mxCell>
        <mxCell id="WciaQcS6WvNpjQy-xUMx-114" value="$$\frac{3N}{4}+2L-2$$" style="rounded=0;whiteSpace=wrap;html=1;fontSize=12;fillColor=#dae8fc;strokeColor=default;" vertex="1" parent="1">
          <mxGeometry x="130" y="650" width="90" height="40" as="geometry" />
        </mxCell>
        <mxCell id="WciaQcS6WvNpjQy-xUMx-115" value="$$\frac{3N}{4}+4L-2$$" style="rounded=0;whiteSpace=wrap;html=1;fontSize=12;fillColor=#dae8fc;strokeColor=default;" vertex="1" parent="1">
          <mxGeometry x="130" y="690" width="90" height="40" as="geometry" />
        </mxCell>
        <mxCell id="WciaQcS6WvNpjQy-xUMx-116" value="$$\vdots$$" style="rounded=0;whiteSpace=wrap;html=1;fontSize=12;fillColor=#dae8fc;strokeColor=default;" vertex="1" parent="1">
          <mxGeometry x="130" y="730" width="90" height="40" as="geometry" />
        </mxCell>
        <mxCell id="WciaQcS6WvNpjQy-xUMx-117" value="$$N-2$$" style="rounded=0;whiteSpace=wrap;html=1;fontSize=12;fillColor=#dae8fc;strokeColor=default;" vertex="1" parent="1">
          <mxGeometry x="130" y="770" width="90" height="40" as="geometry" />
        </mxCell>
        <mxCell id="WciaQcS6WvNpjQy-xUMx-118" value="" style="rounded=0;whiteSpace=wrap;html=1;fontSize=12;" vertex="1" parent="1">
          <mxGeometry x="130" y="810" width="90" height="40" as="geometry" />
        </mxCell>
        <mxCell id="WciaQcS6WvNpjQy-xUMx-119" value="" style="rounded=0;whiteSpace=wrap;html=1;fontSize=12;" vertex="1" parent="1">
          <mxGeometry x="130" y="850" width="90" height="40" as="geometry" />
        </mxCell>
        <mxCell id="WciaQcS6WvNpjQy-xUMx-120" value="" style="rounded=0;whiteSpace=wrap;html=1;fontSize=12;" vertex="1" parent="1">
          <mxGeometry x="130" y="890" width="90" height="40" as="geometry" />
        </mxCell>
        <mxCell id="WciaQcS6WvNpjQy-xUMx-121" value="$$\vdots$$" style="rounded=0;whiteSpace=wrap;html=1;fontSize=12;" vertex="1" parent="1">
          <mxGeometry x="130" y="930" width="90" height="40" as="geometry" />
        </mxCell>
        <mxCell id="WciaQcS6WvNpjQy-xUMx-122" value="$$2L-2$$" style="rounded=0;whiteSpace=wrap;html=1;fontSize=12;fillColor=#f5f5f5;strokeColor=default;fontColor=#333333;" vertex="1" parent="1">
          <mxGeometry x="330" y="170" width="90" height="40" as="geometry" />
        </mxCell>
        <mxCell id="WciaQcS6WvNpjQy-xUMx-123" value="$$4L-2$$" style="rounded=0;whiteSpace=wrap;html=1;fontSize=12;fillColor=#f5f5f5;strokeColor=default;fontColor=#333333;" vertex="1" parent="1">
          <mxGeometry x="330" y="210" width="90" height="40" as="geometry" />
        </mxCell>
        <mxCell id="WciaQcS6WvNpjQy-xUMx-124" value="$$\vdots$$" style="rounded=0;whiteSpace=wrap;html=1;fontSize=12;fillColor=#f5f5f5;strokeColor=default;fontColor=#333333;" vertex="1" parent="1">
          <mxGeometry x="330" y="250" width="90" height="40" as="geometry" />
        </mxCell>
        <mxCell id="WciaQcS6WvNpjQy-xUMx-125" value="$$\frac{N}{4}-2$$" style="rounded=0;whiteSpace=wrap;html=1;fontSize=12;fillColor=#f5f5f5;strokeColor=default;fontColor=#333333;" vertex="1" parent="1">
          <mxGeometry x="330" y="290" width="90" height="40" as="geometry" />
        </mxCell>
        <mxCell id="WciaQcS6WvNpjQy-xUMx-126" value="$$\frac{N}{2}+1$$" style="rounded=0;whiteSpace=wrap;html=1;fontSize=12;fillColor=#fff2cc;strokeColor=default;" vertex="1" parent="1">
          <mxGeometry x="330" y="330" width="90" height="40" as="geometry" />
        </mxCell>
        <mxCell id="WciaQcS6WvNpjQy-xUMx-127" value="$$\vdots$$" style="rounded=0;whiteSpace=wrap;html=1;fontSize=12;fillColor=#fff2cc;strokeColor=default;" vertex="1" parent="1">
          <mxGeometry x="330" y="410" width="90" height="40" as="geometry" />
        </mxCell>
        <mxCell id="WciaQcS6WvNpjQy-xUMx-128" value="$$\frac{N}{2}+2L+1$$" style="rounded=0;whiteSpace=wrap;html=1;fontSize=12;fillColor=#fff2cc;strokeColor=default;" vertex="1" parent="1">
          <mxGeometry x="330" y="370" width="90" height="40" as="geometry" />
        </mxCell>
        <mxCell id="WciaQcS6WvNpjQy-xUMx-129" value="$$\frac{3N}{4}-2L+1$$" style="rounded=0;whiteSpace=wrap;html=1;fontSize=12;fillColor=#fff2cc;strokeColor=default;" vertex="1" parent="1">
          <mxGeometry x="330" y="450" width="90" height="40" as="geometry" />
        </mxCell>
        <mxCell id="WciaQcS6WvNpjQy-xUMx-130" value="$$\frac{N}{4}+2L-2$$" style="rounded=0;whiteSpace=wrap;html=1;fontSize=12;fillColor=#ffe6cc;strokeColor=default;" vertex="1" parent="1">
          <mxGeometry x="330" y="490" width="90" height="40" as="geometry" />
        </mxCell>
        <mxCell id="WciaQcS6WvNpjQy-xUMx-131" value="$$\frac{N}{4}+4L-2$$" style="rounded=0;whiteSpace=wrap;html=1;fontSize=12;fillColor=#ffe6cc;strokeColor=default;" vertex="1" parent="1">
          <mxGeometry x="330" y="530" width="90" height="40" as="geometry" />
        </mxCell>
        <mxCell id="WciaQcS6WvNpjQy-xUMx-132" value="$$\vdots$$" style="rounded=0;whiteSpace=wrap;html=1;fontSize=12;fillColor=#ffe6cc;strokeColor=default;" vertex="1" parent="1">
          <mxGeometry x="330" y="570" width="90" height="40" as="geometry" />
        </mxCell>
        <mxCell id="WciaQcS6WvNpjQy-xUMx-133" value="$$\frac{N}{2}-2$$" style="rounded=0;whiteSpace=wrap;html=1;fontSize=12;fillColor=#ffe6cc;strokeColor=default;" vertex="1" parent="1">
          <mxGeometry x="330" y="610" width="90" height="40" as="geometry" />
        </mxCell>
        <mxCell id="WciaQcS6WvNpjQy-xUMx-134" value="$$\frac{3N}{4}+1$$" style="rounded=0;whiteSpace=wrap;html=1;fontSize=12;fillColor=#dae8fc;strokeColor=default;" vertex="1" parent="1">
          <mxGeometry x="330" y="650" width="90" height="40" as="geometry" />
        </mxCell>
        <mxCell id="WciaQcS6WvNpjQy-xUMx-135" value="$$\frac{3N}{4}+2L+1$$" style="rounded=0;whiteSpace=wrap;html=1;fontSize=12;fillColor=#dae8fc;strokeColor=default;" vertex="1" parent="1">
          <mxGeometry x="330" y="690" width="90" height="40" as="geometry" />
        </mxCell>
        <mxCell id="WciaQcS6WvNpjQy-xUMx-136" value="$$\vdots$$" style="rounded=0;whiteSpace=wrap;html=1;fontSize=12;fillColor=#dae8fc;strokeColor=default;" vertex="1" parent="1">
          <mxGeometry x="330" y="730" width="90" height="40" as="geometry" />
        </mxCell>
        <mxCell id="WciaQcS6WvNpjQy-xUMx-137" value="$$N-2L+1$$" style="rounded=0;whiteSpace=wrap;html=1;fontSize=12;fillColor=#dae8fc;strokeColor=default;" vertex="1" parent="1">
          <mxGeometry x="330" y="770" width="90" height="40" as="geometry" />
        </mxCell>
        <mxCell id="WciaQcS6WvNpjQy-xUMx-138" value="" style="rounded=0;whiteSpace=wrap;html=1;fontSize=12;" vertex="1" parent="1">
          <mxGeometry x="330" y="810" width="90" height="40" as="geometry" />
        </mxCell>
        <mxCell id="WciaQcS6WvNpjQy-xUMx-139" value="" style="rounded=0;whiteSpace=wrap;html=1;fontSize=12;" vertex="1" parent="1">
          <mxGeometry x="330" y="850" width="90" height="40" as="geometry" />
        </mxCell>
        <mxCell id="WciaQcS6WvNpjQy-xUMx-140" value="" style="rounded=0;whiteSpace=wrap;html=1;fontSize=12;" vertex="1" parent="1">
          <mxGeometry x="330" y="890" width="90" height="40" as="geometry" />
        </mxCell>
        <mxCell id="WciaQcS6WvNpjQy-xUMx-141" value="$$\vdots$$" style="rounded=0;whiteSpace=wrap;html=1;fontSize=12;" vertex="1" parent="1">
          <mxGeometry x="330" y="930" width="90" height="40" as="geometry" />
        </mxCell>
        <mxCell id="WciaQcS6WvNpjQy-xUMx-162" value="$$2L-1$$" style="rounded=0;whiteSpace=wrap;html=1;fontSize=12;fillColor=#f5f5f5;strokeColor=default;fontColor=#333333;" vertex="1" parent="1">
          <mxGeometry x="440" y="170" width="90" height="40" as="geometry" />
        </mxCell>
        <mxCell id="WciaQcS6WvNpjQy-xUMx-163" value="$$4L-1$$" style="rounded=0;whiteSpace=wrap;html=1;fontSize=12;fillColor=#f5f5f5;strokeColor=default;fontColor=#333333;" vertex="1" parent="1">
          <mxGeometry x="440" y="210" width="90" height="40" as="geometry" />
        </mxCell>
        <mxCell id="WciaQcS6WvNpjQy-xUMx-164" value="$$\vdots$$" style="rounded=0;whiteSpace=wrap;html=1;fontSize=12;fillColor=#f5f5f5;strokeColor=default;fontColor=#333333;" vertex="1" parent="1">
          <mxGeometry x="440" y="250" width="90" height="40" as="geometry" />
        </mxCell>
        <mxCell id="WciaQcS6WvNpjQy-xUMx-165" value="$$\frac{N}{4}-1$$" style="rounded=0;whiteSpace=wrap;html=1;fontSize=12;fillColor=#f5f5f5;strokeColor=default;fontColor=#333333;" vertex="1" parent="1">
          <mxGeometry x="440" y="290" width="90" height="40" as="geometry" />
        </mxCell>
        <mxCell id="WciaQcS6WvNpjQy-xUMx-166" value="$$\frac{N}{2}$$" style="rounded=0;whiteSpace=wrap;html=1;fontSize=12;fillColor=#fff2cc;strokeColor=default;" vertex="1" parent="1">
          <mxGeometry x="440" y="330" width="90" height="40" as="geometry" />
        </mxCell>
        <mxCell id="WciaQcS6WvNpjQy-xUMx-167" value="$$\vdots$$" style="rounded=0;whiteSpace=wrap;html=1;fontSize=12;fillColor=#fff2cc;strokeColor=default;" vertex="1" parent="1">
          <mxGeometry x="440" y="410" width="90" height="40" as="geometry" />
        </mxCell>
        <mxCell id="WciaQcS6WvNpjQy-xUMx-168" value="$$\frac{N}{2}+2L$$" style="rounded=0;whiteSpace=wrap;html=1;fontSize=12;fillColor=#fff2cc;strokeColor=default;" vertex="1" parent="1">
          <mxGeometry x="440" y="370" width="90" height="40" as="geometry" />
        </mxCell>
        <mxCell id="WciaQcS6WvNpjQy-xUMx-169" value="$$\frac{3N}{4}-2L$$" style="rounded=0;whiteSpace=wrap;html=1;fontSize=12;fillColor=#fff2cc;strokeColor=default;" vertex="1" parent="1">
          <mxGeometry x="440" y="450" width="90" height="40" as="geometry" />
        </mxCell>
        <mxCell id="WciaQcS6WvNpjQy-xUMx-170" value="$$\frac{N}{4}+2L-1$$" style="rounded=0;whiteSpace=wrap;html=1;fontSize=12;fillColor=#ffe6cc;strokeColor=default;" vertex="1" parent="1">
          <mxGeometry x="440" y="490" width="90" height="40" as="geometry" />
        </mxCell>
        <mxCell id="WciaQcS6WvNpjQy-xUMx-171" value="$$\frac{N}{4}+4L-1$$" style="rounded=0;whiteSpace=wrap;html=1;fontSize=12;fillColor=#ffe6cc;strokeColor=default;" vertex="1" parent="1">
          <mxGeometry x="440" y="530" width="90" height="40" as="geometry" />
        </mxCell>
        <mxCell id="WciaQcS6WvNpjQy-xUMx-172" value="$$\vdots$$" style="rounded=0;whiteSpace=wrap;html=1;fontSize=12;fillColor=#ffe6cc;strokeColor=default;" vertex="1" parent="1">
          <mxGeometry x="440" y="570" width="90" height="40" as="geometry" />
        </mxCell>
        <mxCell id="WciaQcS6WvNpjQy-xUMx-173" value="$$\frac{N}{2}-1$$" style="rounded=0;whiteSpace=wrap;html=1;fontSize=12;fillColor=#ffe6cc;strokeColor=default;" vertex="1" parent="1">
          <mxGeometry x="440" y="610" width="90" height="40" as="geometry" />
        </mxCell>
        <mxCell id="WciaQcS6WvNpjQy-xUMx-174" value="$$\frac{3N}{4}$$" style="rounded=0;whiteSpace=wrap;html=1;fontSize=12;fillColor=#dae8fc;strokeColor=default;" vertex="1" parent="1">
          <mxGeometry x="440" y="650" width="90" height="40" as="geometry" />
        </mxCell>
        <mxCell id="WciaQcS6WvNpjQy-xUMx-175" value="$$\frac{3N}{4}+2L$$" style="rounded=0;whiteSpace=wrap;html=1;fontSize=12;fillColor=#dae8fc;strokeColor=default;" vertex="1" parent="1">
          <mxGeometry x="440" y="690" width="90" height="40" as="geometry" />
        </mxCell>
        <mxCell id="WciaQcS6WvNpjQy-xUMx-176" value="$$\vdots$$" style="rounded=0;whiteSpace=wrap;html=1;fontSize=12;fillColor=#dae8fc;strokeColor=default;" vertex="1" parent="1">
          <mxGeometry x="440" y="730" width="90" height="40" as="geometry" />
        </mxCell>
        <mxCell id="WciaQcS6WvNpjQy-xUMx-177" value="$$N-2L$$" style="rounded=0;whiteSpace=wrap;html=1;fontSize=12;fillColor=#dae8fc;strokeColor=default;" vertex="1" parent="1">
          <mxGeometry x="440" y="770" width="90" height="40" as="geometry" />
        </mxCell>
        <mxCell id="WciaQcS6WvNpjQy-xUMx-178" value="" style="rounded=0;whiteSpace=wrap;html=1;fontSize=12;" vertex="1" parent="1">
          <mxGeometry x="440" y="810" width="90" height="40" as="geometry" />
        </mxCell>
        <mxCell id="WciaQcS6WvNpjQy-xUMx-179" value="" style="rounded=0;whiteSpace=wrap;html=1;fontSize=12;" vertex="1" parent="1">
          <mxGeometry x="440" y="850" width="90" height="40" as="geometry" />
        </mxCell>
        <mxCell id="WciaQcS6WvNpjQy-xUMx-180" value="" style="rounded=0;whiteSpace=wrap;html=1;fontSize=12;" vertex="1" parent="1">
          <mxGeometry x="440" y="890" width="90" height="40" as="geometry" />
        </mxCell>
        <mxCell id="WciaQcS6WvNpjQy-xUMx-181" value="$$\vdots$$" style="rounded=0;whiteSpace=wrap;html=1;fontSize=12;" vertex="1" parent="1">
          <mxGeometry x="440" y="930" width="90" height="40" as="geometry" />
        </mxCell>
        <mxCell id="WciaQcS6WvNpjQy-xUMx-182" value="" style="endArrow=classic;startArrow=classic;html=1;rounded=0;" edge="1" parent="1">
          <mxGeometry width="50" height="50" relative="1" as="geometry">
            <mxPoint x="10" y="330" as="sourcePoint" />
            <mxPoint x="10" y="170" as="targetPoint" />
          </mxGeometry>
        </mxCell>
        <mxCell id="WciaQcS6WvNpjQy-xUMx-183" value="" style="endArrow=classic;startArrow=classic;html=1;rounded=0;" edge="1" parent="1">
          <mxGeometry width="50" height="50" relative="1" as="geometry">
            <mxPoint x="10" y="490" as="sourcePoint" />
            <mxPoint x="10" y="330" as="targetPoint" />
          </mxGeometry>
        </mxCell>
        <mxCell id="WciaQcS6WvNpjQy-xUMx-184" value="" style="endArrow=classic;startArrow=classic;html=1;rounded=0;" edge="1" parent="1">
          <mxGeometry width="50" height="50" relative="1" as="geometry">
            <mxPoint x="10" y="650" as="sourcePoint" />
            <mxPoint x="10" y="490" as="targetPoint" />
          </mxGeometry>
        </mxCell>
        <mxCell id="WciaQcS6WvNpjQy-xUMx-185" value="" style="endArrow=classic;startArrow=classic;html=1;rounded=0;" edge="1" parent="1">
          <mxGeometry width="50" height="50" relative="1" as="geometry">
            <mxPoint x="10" y="810" as="sourcePoint" />
            <mxPoint x="10" y="650" as="targetPoint" />
          </mxGeometry>
        </mxCell>
        <mxCell id="WciaQcS6WvNpjQy-xUMx-186" value="" style="endArrow=classic;startArrow=classic;html=1;rounded=0;" edge="1" parent="1">
          <mxGeometry width="50" height="50" relative="1" as="geometry">
            <mxPoint x="10" y="970" as="sourcePoint" />
            <mxPoint x="10" y="810" as="targetPoint" />
          </mxGeometry>
        </mxCell>
        <mxCell id="WciaQcS6WvNpjQy-xUMx-187" value="$$\frac{N}{8L}$$" style="text;html=1;strokeColor=none;fillColor=none;align=center;verticalAlign=middle;whiteSpace=wrap;rounded=0;fontSize=14;" vertex="1" parent="1">
          <mxGeometry x="-50" y="240" width="60" height="30" as="geometry" />
        </mxCell>
        <mxCell id="WciaQcS6WvNpjQy-xUMx-188" value="$$\frac{N}{8L}$$" style="text;html=1;strokeColor=none;fillColor=none;align=center;verticalAlign=middle;whiteSpace=wrap;rounded=0;fontSize=14;" vertex="1" parent="1">
          <mxGeometry x="-50" y="400" width="60" height="30" as="geometry" />
        </mxCell>
        <mxCell id="WciaQcS6WvNpjQy-xUMx-189" value="$$\frac{N}{8L}$$" style="text;html=1;strokeColor=none;fillColor=none;align=center;verticalAlign=middle;whiteSpace=wrap;rounded=0;fontSize=14;" vertex="1" parent="1">
          <mxGeometry x="-50" y="560" width="60" height="30" as="geometry" />
        </mxCell>
        <mxCell id="WciaQcS6WvNpjQy-xUMx-190" value="$$\frac{N}{8L}$$" style="text;html=1;strokeColor=none;fillColor=none;align=center;verticalAlign=middle;whiteSpace=wrap;rounded=0;fontSize=14;" vertex="1" parent="1">
          <mxGeometry x="-50" y="720" width="60" height="30" as="geometry" />
        </mxCell>
        <mxCell id="WciaQcS6WvNpjQy-xUMx-191" value="$$\frac{N}{8L}$$" style="text;html=1;strokeColor=none;fillColor=none;align=center;verticalAlign=middle;whiteSpace=wrap;rounded=0;fontSize=14;" vertex="1" parent="1">
          <mxGeometry x="-50" y="880" width="60" height="30" as="geometry" />
        </mxCell>
        <mxCell id="WciaQcS6WvNpjQy-xUMx-192" value="&lt;font style=&quot;font-size: 16px;&quot;&gt;$$\cdots$$&lt;/font&gt;" style="text;html=1;strokeColor=none;fillColor=none;align=center;verticalAlign=middle;whiteSpace=wrap;rounded=0;fontStyle=1" vertex="1" parent="1">
          <mxGeometry x="240" y="575" width="60" height="30" as="geometry" />
        </mxCell>
        <mxCell id="WciaQcS6WvNpjQy-xUMx-193" value="&lt;font style=&quot;font-size: 14px;&quot;&gt;&lt;span&gt;BRAM1&lt;/span&gt;&lt;/font&gt;" style="text;html=1;strokeColor=none;fillColor=none;align=center;verticalAlign=middle;whiteSpace=wrap;rounded=0;fontSize=16;fontStyle=0" vertex="1" parent="1">
          <mxGeometry x="35" y="130" width="60" height="30" as="geometry" />
        </mxCell>
        <mxCell id="WciaQcS6WvNpjQy-xUMx-194" value="&lt;font style=&quot;font-size: 14px;&quot;&gt;&lt;span&gt;BRAM2&lt;/span&gt;&lt;/font&gt;" style="text;html=1;strokeColor=none;fillColor=none;align=center;verticalAlign=middle;whiteSpace=wrap;rounded=0;fontSize=16;fontStyle=0" vertex="1" parent="1">
          <mxGeometry x="145" y="130" width="60" height="30" as="geometry" />
        </mxCell>
        <mxCell id="WciaQcS6WvNpjQy-xUMx-195" value="&lt;font style=&quot;font-size: 14px;&quot;&gt;&lt;span&gt;BRAM 2L-1&lt;/span&gt;&lt;/font&gt;" style="text;html=1;strokeColor=none;fillColor=none;align=center;verticalAlign=middle;whiteSpace=wrap;rounded=0;fontSize=16;fontStyle=0" vertex="1" parent="1">
          <mxGeometry x="337.5" y="130" width="75" height="30" as="geometry" />
        </mxCell>
        <mxCell id="WciaQcS6WvNpjQy-xUMx-196" value="&lt;font style=&quot;font-size: 14px;&quot;&gt;&lt;span&gt;BRAM 2L&lt;/span&gt;&lt;/font&gt;" style="text;html=1;strokeColor=none;fillColor=none;align=center;verticalAlign=middle;whiteSpace=wrap;rounded=0;fontSize=16;fontStyle=0" vertex="1" parent="1">
          <mxGeometry x="447.5" y="130" width="75" height="30" as="geometry" />
        </mxCell>
        <mxCell id="WciaQcS6WvNpjQy-xUMx-197" value="" style="shape=trapezoid;perimeter=trapezoidPerimeter;whiteSpace=wrap;html=1;fixedSize=1;rotation=-90;" vertex="1" parent="1">
          <mxGeometry x="684" y="486" width="360" height="36" as="geometry" />
        </mxCell>
      </root>
    </mxGraphModel>
  </diagram>
</mxfile>
